<?xml version="1.0" encoding="UTF-8" standalone="no"?>
<svg
   xmlns:dc="http://purl.org/dc/elements/1.1/"
   xmlns:cc="http://creativecommons.org/ns#"
   xmlns:rdf="http://www.w3.org/1999/02/22-rdf-syntax-ns#"
   xmlns:svg="http://www.w3.org/2000/svg"
   xmlns="http://www.w3.org/2000/svg"
   xmlns:sodipodi="http://sodipodi.sourceforge.net/DTD/sodipodi-0.dtd"
   xmlns:inkscape="http://www.inkscape.org/namespaces/inkscape"
   viewBox="0 0 61.31 58.79"
   version="1.1"
   id="svg4"
   sodipodi:docname="like.svg"
   inkscape:version="0.92.4 (5da689c313, 2019-01-14)">
  <metadata
     id="metadata10">
    <rdf:RDF>
      <cc:Work
         rdf:about="">
        <dc:format>image/svg+xml</dc:format>
        <dc:type
           rdf:resource="http://purl.org/dc/dcmitype/StillImage" />
      </cc:Work>
    </rdf:RDF>
  </metadata>
  <defs
     id="defs8" />
  <sodipodi:namedview
     pagecolor="#ffffff"
     bordercolor="#666666"
     borderopacity="1"
     objecttolerance="10"
     gridtolerance="10"
     guidetolerance="10"
     inkscape:pageopacity="0"
     inkscape:pageshadow="2"
     inkscape:window-width="1920"
     inkscape:window-height="1018"
     id="namedview6"
     showgrid="false"
     inkscape:zoom="4.0142881"
     inkscape:cx="30.655001"
     inkscape:cy="29.395"
     inkscape:window-x="-8"
     inkscape:window-y="-8"
     inkscape:window-maximized="1"
     inkscape:current-layer="svg4" />
  <path
     class="like"
     d="M61.31 28.57a5.645 5.645 0 0 1-.29 1.82 4.866 4.866 0 0 1-.84 1.55 4.953 4.953 0 0 1-1.26 1.13 8.117 8.117 0 0 1-1.55.7 8.716 8.716 0 0 1 .7 1.48 5.021 5.021 0 0 1 .28 1.75 5.208 5.208 0 0 1-.28 1.69 8.117 8.117 0 0 1-.7 1.55 9.455 9.455 0 0 1-1.27 1.05 7.3 7.3 0 0 1-1.4.78 8.023 8.023 0 0 1 .7 1.54 5.3 5.3 0 0 1 .28 1.69 5.079 5.079 0 0 1-.28 1.76 8.619 8.619 0 0 1-.7 1.47 5.987 5.987 0 0 1-1.27 1.2 3.638 3.638 0 0 1-1.55.63 4.825 4.825 0 0 1 1.13 3.24 5.024 5.024 0 0 1-.42 1.97 5.229 5.229 0 0 1-1.13 1.68 7.238 7.238 0 0 1-1.83 1.13 5.3 5.3 0 0 1-2.11.42H28.96a10.433 10.433 0 0 1-2.25-.28 18.428 18.428 0 0 1-2.67-.84 24.043 24.043 0 0 1-2.81-1.06c-.94-.42-1.88-.82-2.81-1.19-1.13-.47-2.23-.94-3.31-1.41a6.852 6.852 0 0 0-2.32-.7H-.01V25.89l1.13-.14h10.97a8.942 8.942 0 0 0 2.32-.28 6.385 6.385 0 0 0 2.18-1.12 23.738 23.738 0 0 0 2.88-1.97q1.62-1.275 3.87-3.1a14.178 14.178 0 0 0 5.13-9.14q.765-5.475.77-6.32a3.249 3.249 0 0 1 .43-1.62A3.023 3.023 0 0 1 30.79 1a4.125 4.125 0 0 1 1.48-.77 5.549 5.549 0 0 1 1.47-.21 9.124 9.124 0 0 1 2.25.28 4.526 4.526 0 0 1 2.11 1.27 6.7 6.7 0 0 1 1.55 2.6 13.555 13.555 0 0 1 .56 4.29 29.3 29.3 0 0 1-.35 4.57 36.576 36.576 0 0 1-.91 4.15 23.294 23.294 0 0 1-1.06 3.58c-.42 1.08-.77 1.99-1.05 2.74h19.12a5.924 5.924 0 0 1 2.18.36 6.08 6.08 0 0 1 1.76 1.05 4.528 4.528 0 0 1 1.05 1.62 5.53 5.53 0 0 1 .36 2.04zm-5.35 2.95a3.638 3.638 0 0 0 1.27-.21 1.709 1.709 0 0 0 .84-.63 4.309 4.309 0 0 0 .7-.92 2.331 2.331 0 0 0 .29-1.19 2.713 2.713 0 0 0-.85-1.97 3.008 3.008 0 0 0-2.25-.85H33.04l.84-1.68q3.945-9.705 3.94-15.61c0-3.1-.51-4.9-1.55-5.42a6.082 6.082 0 0 0-2.53-.77 3.224 3.224 0 0 0-1.26.42 1.282 1.282 0 0 0-.85 1.13c0 .56-.04 1.5-.14 2.81a22.928 22.928 0 0 1-.84 4.5 29.08 29.08 0 0 1-2.04 5.2 14.092 14.092 0 0 1-3.73 4.64c-1.59 1.32-2.93 2.42-4 3.31a26.032 26.032 0 0 1-3.03 2.18 12.412 12.412 0 0 1-2.81 1.26 10.262 10.262 0 0 1-2.95.42H2.38v22.79h10.41a7.669 7.669 0 0 1 2.6.63c1.08.42 2.41.96 4.01 1.62.75.37 1.57.77 2.46 1.19a25.892 25.892 0 0 0 2.6 1.06c.94.28 1.78.54 2.53.77a6.893 6.893 0 0 0 1.97.35h18.56a2.788 2.788 0 0 0 1.27-.28 3.874 3.874 0 0 0 .98-.7 1.653 1.653 0 0 0 .64-.85 3.17 3.17 0 0 0 .21-1.12 3.069 3.069 0 0 0-.21-1.2 2.965 2.965 0 0 0-1.62-1.54 3.42 3.42 0 0 0-1.27-.22h-.28v-2.39h3.24a3.17 3.17 0 0 0 1.12-.21 2.7 2.7 0 0 0 .99-.63c.18-.28.37-.61.56-.98a2.482 2.482 0 0 0 .28-1.13 2.443 2.443 0 0 0-.28-1.12 10.608 10.608 0 0 0-.56-.99 8.739 8.739 0 0 0-.99-.56 2.443 2.443 0 0 0-1.12-.28h-.99v-2.39h3.52a3.17 3.17 0 0 0 1.12-.21 2.728 2.728 0 0 0 .99-.64 3.874 3.874 0 0 0 .7-.98A2.452 2.452 0 0 0 56.1 37a2.745 2.745 0 0 0-.28-1.26 2.152 2.152 0 0 0-.7-.85 3.758 3.758 0 0 0-.99-.7 2.443 2.443 0 0 0-1.12-.28h-1.13v-2.39h4.08z"
     id="path2" />
  <path
     style="stroke-width:0.24911018;fill:#2a7fff"
     d="M 26.295573,58.252613 C 23.901814,57.606812 23.162796,57.326 18.316596,55.220753 L 14.089174,53.38431 7.0496898,53.311084 0.01020545,53.237858 0.07460494,39.610025 0.13900445,25.982191 7.2386444,25.85229 c 4.7718376,-0.08731 7.3276716,-0.229523 7.7951196,-0.433741 2.082901,-0.909975 8.982851,-6.280276 10.443803,-8.128519 1.162069,-1.470129 2.269598,-3.585822 2.685336,-5.129752 0.163608,-0.607597 0.549046,-3.0460198 0.856525,-5.4187157 0.526138,-4.0599815 0.601748,-4.3593993 1.284145,-5.085149 1.942103,-2.06548088 5.660491,-1.98995453 7.728429,0.1569766 1.27036,1.3188865 1.82471,2.8658089 2.010419,5.6100933 0.243548,3.5989588 -0.926578,9.9532558 -2.617226,14.2126858 l -0.736253,1.85492 10.497256,0.124555 c 10.2575,0.121711 10.520959,0.137228 11.534997,0.679414 3.584048,1.916317 3.176053,7.44525 -0.66687,9.037042 -0.559761,0.231859 -0.724704,0.428661 -0.603026,0.719497 1.349467,3.225563 0.798811,5.688346 -1.618723,7.239672 l -1.252439,0.803689 0.381709,0.738144 c 0.551408,1.066306 0.71804,2.97451 0.355635,4.07261 -0.380972,1.154349 -1.743874,2.702676 -2.743475,3.116724 -0.409553,0.169642 -0.744641,0.327189 -0.744641,0.350102 0,0.02292 0.2242,0.481413 0.498221,1.018891 0.938829,1.841457 0.482352,4.384319 -1.034475,5.762673 -1.631642,1.482684 -1.413324,1.456824 -12.79114,1.515237 -9.577237,0.04917 -10.610193,0.0139 -12.206398,-0.416726 z m 22.365639,-1.846875 c 1.332767,-0.567884 1.964533,-1.447129 1.984407,-2.761748 0.02302,-1.522365 -0.620427,-2.38938 -2.133883,-2.875337 -1.144051,-0.367343 -1.16376,-0.391576 -1.165046,-1.432383 l -0.0013,-1.058718 h 1.981161 c 1.089638,0 2.275674,-0.134191 2.635638,-0.2982 0.69418,-0.31629 1.610956,-1.837317 1.610956,-2.672748 0,-1.551229 -1.572294,-3.007697 -3.246885,-3.007697 -0.709635,0 -0.738878,-0.04437 -0.738878,-1.120995 v -1.120996 h 2.017511 c 2.582667,0 3.50572,-0.412977 4.219727,-1.887919 0.448959,-0.927422 0.487518,-1.222169 0.252894,-1.93309 -0.451497,-1.368048 -1.84779,-2.406745 -3.235323,-2.406745 -0.73906,0 -0.763707,-0.03618 -0.763707,-1.120996 V 31.58717 h 2.350329 c 1.292683,0 2.623683,-0.103929 2.957782,-0.230953 1.401405,-0.532814 2.152953,-3.199232 1.260752,-4.473027 -0.870104,-1.242247 -1.217516,-1.274664 -13.660502,-1.274664 -6.375394,0 -11.591624,-0.0421 -11.591624,-0.09356 0,-0.05146 0.286384,-0.741126 0.636411,-1.532598 0.350028,-0.791471 1.12608,-2.907287 1.724565,-4.701812 C 38.379282,11.415355 38.622264,4.3367558 36.317275,2.9350086 35.258099,2.2908848 33.570243,2.0592269 32.665826,2.4338481 31.722192,2.8247143 31.471437,3.5624566 31.308557,6.4270405 31.144959,9.3042906 30.288483,12.407263 28.77412,15.609191 c -0.913584,1.931661 -1.434407,2.660197 -3.036195,4.247094 -2.666449,2.641662 -6.995619,6.038474 -8.85485,6.947816 -2.198337,1.075194 -3.825158,1.295525 -9.5656188,1.295525 H 2.2564409 v 11.43961 11.43961 l 6.0409217,0.09574 6.0409214,0.09574 2.366547,1.009905 c 1.301601,0.555446 3.487542,1.517008 4.857648,2.136804 2.299144,1.040065 5.090841,1.993579 6.60142,2.254741 0.342526,0.05922 4.914184,0.122936 10.159241,0.141595 7.581987,0.02697 9.700754,-0.03608 10.338072,-0.307636 z"
     id="path12"
     inkscape:connector-curvature="0" />
</svg>
