<?xml version="1.0" encoding="UTF-8" standalone="no"?>
<svg
   xmlns:dc="http://purl.org/dc/elements/1.1/"
   xmlns:cc="http://creativecommons.org/ns#"
   xmlns:rdf="http://www.w3.org/1999/02/22-rdf-syntax-ns#"
   xmlns:svg="http://www.w3.org/2000/svg"
   xmlns="http://www.w3.org/2000/svg"
   xmlns:sodipodi="http://sodipodi.sourceforge.net/DTD/sodipodi-0.dtd"
   xmlns:inkscape="http://www.inkscape.org/namespaces/inkscape"
   viewBox="0 0 59.907 59.91"
   version="1.1"
   id="svg4"
   sodipodi:docname="ok.svg"
   inkscape:version="0.92.4 (5da689c313, 2019-01-14)">
  <metadata
     id="metadata10">
    <rdf:RDF>
      <cc:Work
         rdf:about="">
        <dc:format>image/svg+xml</dc:format>
        <dc:type
           rdf:resource="http://purl.org/dc/dcmitype/StillImage" />
      </cc:Work>
    </rdf:RDF>
  </metadata>
  <defs
     id="defs8">
    <filter
       style="color-interpolation-filters:sRGB;"
       inkscape:label="Channel Painting"
       id="filter4540">
      <feColorMatrix
         values="1"
         type="saturate"
         result="colormatrix1"
         id="feColorMatrix4524" />
      <feColorMatrix
         values="1 0 0 0 0 0 1 0 0 0 0 0 1 0 0 -1 0.5 0.5 1 0 "
         in="SourceGraphic"
         result="colormatrix2"
         id="feColorMatrix4526" />
      <feFlood
         flood-color="rgb(244,96,96)"
         flood-opacity="1"
         result="flood"
         id="feFlood4528" />
      <feComposite
         in2="colormatrix2"
         operator="out"
         result="composite1"
         id="feComposite4530" />
      <feMerge
         result="merge"
         id="feMerge4536">
        <feMergeNode
           in="colormatrix1"
           id="feMergeNode4532" />
        <feMergeNode
           in="composite1"
           id="feMergeNode4534" />
      </feMerge>
      <feComposite
         in="merge"
         in2="SourceGraphic"
         operator="in"
         result="fbSourceGraphic"
         id="feComposite4538" />
      <feColorMatrix
         result="fbSourceGraphicAlpha"
         in="fbSourceGraphic"
         values="0 0 0 -1 0 0 0 0 -1 0 0 0 0 -1 0 0 0 0 1 0"
         id="feColorMatrix4542" />
      <feColorMatrix
         id="feColorMatrix4544"
         values="1"
         type="saturate"
         result="colormatrix1"
         in="fbSourceGraphic" />
      <feColorMatrix
         id="feColorMatrix4546"
         values="1 0 0 0 0 0 1 0 0 0 0 0 1 0 0 -1 0.5 0.5 1 0 "
         in="fbSourceGraphic"
         result="colormatrix2" />
      <feFlood
         id="feFlood4548"
         flood-color="rgb(244,96,96)"
         flood-opacity="1"
         result="flood" />
      <feComposite
         in2="colormatrix2"
         id="feComposite4550"
         operator="out"
         result="composite1" />
      <feMerge
         id="feMerge4552"
         result="merge">
        <feMergeNode
           id="feMergeNode4554"
           in="colormatrix1" />
        <feMergeNode
           id="feMergeNode4556"
           in="composite1" />
      </feMerge>
      <feComposite
         in2="fbSourceGraphic"
         id="feComposite4558"
         in="merge"
         operator="in"
         result="fbSourceGraphic" />
      <feColorMatrix
         result="fbSourceGraphicAlpha"
         in="fbSourceGraphic"
         values="0 0 0 -1 0 0 0 0 -1 0 0 0 0 -1 0 0 0 0 1 0"
         id="feColorMatrix4560" />
      <feColorMatrix
         id="feColorMatrix4562"
         values="1"
         type="saturate"
         result="colormatrix1"
         in="fbSourceGraphic" />
      <feColorMatrix
         id="feColorMatrix4564"
         values="1 0 0 0 0 0 1 0 0 0 0 0 1 0 0 -1 0.5 0.5 1 0 "
         in="fbSourceGraphic"
         result="colormatrix2" />
      <feFlood
         id="feFlood4566"
         flood-color="rgb(244,96,96)"
         flood-opacity="1"
         result="flood" />
      <feComposite
         in2="colormatrix2"
         id="feComposite4568"
         operator="out"
         result="composite1" />
      <feMerge
         id="feMerge4570"
         result="merge">
        <feMergeNode
           id="feMergeNode4572"
           in="colormatrix1" />
        <feMergeNode
           id="feMergeNode4574"
           in="composite1" />
      </feMerge>
      <feComposite
         in2="fbSourceGraphic"
         id="feComposite4576"
         in="merge"
         operator="in"
         result="fbSourceGraphic" />
      <feColorMatrix
         result="fbSourceGraphicAlpha"
         in="fbSourceGraphic"
         values="0 0 0 -1 0 0 0 0 -1 0 0 0 0 -1 0 0 0 0 1 0"
         id="feColorMatrix4578" />
      <feColorMatrix
         id="feColorMatrix4580"
         values="1"
         type="saturate"
         result="colormatrix1"
         in="fbSourceGraphic" />
      <feColorMatrix
         id="feColorMatrix4582"
         values="1 0 0 0 0 0 1 0 0 0 0 0 1 0 0 -1 0.5 0.5 1 0 "
         in="fbSourceGraphic"
         result="colormatrix2" />
      <feFlood
         id="feFlood4584"
         flood-color="rgb(244,96,96)"
         flood-opacity="1"
         result="flood" />
      <feComposite
         in2="colormatrix2"
         id="feComposite4586"
         operator="out"
         result="composite1" />
      <feMerge
         id="feMerge4588"
         result="merge">
        <feMergeNode
           id="feMergeNode4590"
           in="colormatrix1" />
        <feMergeNode
           id="feMergeNode4592"
           in="composite1" />
      </feMerge>
      <feComposite
         in2="fbSourceGraphic"
         id="feComposite4594"
         in="merge"
         operator="in"
         result="fbSourceGraphic" />
      <feColorMatrix
         result="fbSourceGraphicAlpha"
         in="fbSourceGraphic"
         values="0 0 0 -1 0 0 0 0 -1 0 0 0 0 -1 0 0 0 0 1 0"
         id="feColorMatrix4596" />
      <feColorMatrix
         id="feColorMatrix4598"
         values="1"
         type="saturate"
         result="colormatrix1"
         in="fbSourceGraphic" />
      <feColorMatrix
         id="feColorMatrix4600"
         values="1 0 0 0 0 0 1 0 0 0 0 0 1 0 0 -1 0.5 0.5 1 0 "
         in="fbSourceGraphic"
         result="colormatrix2" />
      <feFlood
         id="feFlood4602"
         flood-color="rgb(244,96,96)"
         flood-opacity="1"
         result="flood" />
      <feComposite
         in2="colormatrix2"
         id="feComposite4604"
         operator="out"
         result="composite1" />
      <feMerge
         id="feMerge4606"
         result="merge">
        <feMergeNode
           id="feMergeNode4608"
           in="colormatrix1" />
        <feMergeNode
           id="feMergeNode4610"
           in="composite1" />
      </feMerge>
      <feComposite
         in2="fbSourceGraphic"
         id="feComposite4612"
         in="merge"
         operator="in"
         result="composite2" />
    </filter>
  </defs>
  <sodipodi:namedview
     pagecolor="#ffffff"
     bordercolor="#666666"
     borderopacity="1"
     objecttolerance="10"
     gridtolerance="10"
     guidetolerance="10"
     inkscape:pageopacity="0"
     inkscape:pageshadow="2"
     inkscape:window-width="1920"
     inkscape:window-height="1018"
     id="namedview6"
     showgrid="false"
     inkscape:zoom="3.9392422"
     inkscape:cx="-11.298088"
     inkscape:cy="29.955"
     inkscape:window-x="-8"
     inkscape:window-y="-8"
     inkscape:window-maximized="1"
     inkscape:current-layer="svg4" />
  <path
     class="za"
     d="M29.969.02a29.925 29.925 0 1 1-11.672 2.32A29.593 29.593 0 0 1 29.969.02zm0 57.51a26.481 26.481 0 0 0 10.758-2.18 26.615 26.615 0 0 0 14.625-14.62 27.656 27.656 0 0 0 0-21.52A26.615 26.615 0 0 0 40.727 4.59a27.635 27.635 0 0 0-21.516 0A26.615 26.615 0 0 0 4.586 19.21a27.644 27.644 0 0 0 0 21.52 26.615 26.615 0 0 0 14.625 14.62 26.467 26.467 0 0 0 10.758 2.18zm15.047-38.25a1.416 1.416 0 0 1 1.195-.56 1.847 1.847 0 0 1 1.336.56 2.178 2.178 0 0 1 .422 1.34 1.4 1.4 0 0 1-.563 1.19L26.875 41.78a.637.637 0 0 1-.492.35 3.04 3.04 0 0 1-.633.07 3.714 3.714 0 0 1-.773-.07.63.63 0 0 1-.492-.35l-8.016-8.01a1.831 1.831 0 0 1-.562-1.34 1.967 1.967 0 0 1 1.757-1.76 1.818 1.818 0 0 1 1.336.57l6.75 6.75 19.266-18.71z"
     id="path2" />
  <path
     style="fill:#ff6600;stroke-width:0.25385594"
     d="M 27.668797,59.680666 C 25.658045,59.522494 22.416759,58.850819 20.380643,58.170378 4.9822,53.024447 -3.5161295,36.181573 1.5160389,20.782544 4.7154271,10.992038 12.323995,3.8593915 22.590362,1.0264351 c 2.21314,-0.61070595 2.812345,-0.6657801 7.236211,-0.66509504 4.414859,6.8287e-4 5.033783,0.0575016 7.309517,0.67102244 5.369434,1.4475583 9.904682,4.0574466 13.765648,7.9216871 11.399284,11.4089474 11.658016,29.6971054 0.585788,41.4056794 -3.654071,3.864081 -8.951052,7.039453 -13.918347,8.343612 -2.102712,0.552063 -7.278507,1.238685 -8.377246,1.111326 -0.209431,-0.02427 -0.894842,-0.08458 -1.523136,-0.134001 z m 8.935242,-2.827828 C 44.864452,54.654466 51.023142,49.73237 54.60019,42.470097 57.301822,36.985136 58.203147,31.256862 57.255909,25.59197 55.12403,12.842397 45.505941,3.8308175 32.555524,2.4491709 26.413338,1.7938769 19.366689,3.6444167 13.904677,7.3471215 8.6931967,10.879991 4.4396657,17.381761 2.8842607,24.19247 2.3061541,26.723848 2.243888,32.50266 2.7666441,35.108275 c 0.8212968,4.093656 2.8725469,8.743481 5.1786641,11.739121 1.483923,1.927615 4.4997808,4.767915 6.3925418,6.020425 3.039868,2.011595 7.093885,3.680276 10.515346,4.328241 2.806214,0.531447 9.161776,0.345812 11.750843,-0.343224 z"
     id="path12"
     inkscape:connector-curvature="0" />
  <path
     style="fill:none;stroke-width:0.25385594;filter:url(#filter4540)"
     d="m 20.488127,37.567364 c -4.703435,-4.729843 -4.97742,-5.15157 -3.988991,-6.14 1.082986,-1.082985 1.655456,-0.763467 5.457903,3.046272 1.95095,1.95469 3.642522,3.553983 3.759051,3.553983 0.116528,0 4.504324,-4.177939 9.750657,-9.284308 5.246334,-5.10637 9.801519,-9.456456 10.122637,-9.66686 0.49821,-0.32644 0.688226,-0.332524 1.295475,-0.04148 0.606444,0.290661 0.711629,0.493151 0.711629,1.369948 0,1.021385 -0.0772,1.10405 -10.606303,11.356633 -8.766735,8.536502 -10.727629,10.327758 -11.305828,10.327758 -0.568992,0 -1.538631,-0.843815 -5.19623,-4.521949 z"
     id="path14"
     inkscape:connector-curvature="0" />
  <path
     style="fill:none;stroke-width:0.25385594"
     d=""
     id="path4614"
     inkscape:connector-curvature="0" />
  <path
     style="fill:none;stroke-width:0.25385594"
     d="m 20.497367,37.704731 c -3.736628,-3.759941 -4.379015,-4.519181 -4.379015,-5.175579 0,-0.946732 0.686395,-1.6095 1.666877,-1.6095 0.610989,0 1.359662,0.620151 4.338805,3.593979 l 3.600402,3.593978 3.171154,-3.022802 c 1.744136,-1.662542 6.255661,-6.021476 10.025614,-9.686521 3.769952,-3.665045 7.040866,-6.663718 7.268699,-6.663718 0.622896,0 1.660441,1.162625 1.660441,1.860616 0,0.475852 -2.408999,2.954498 -10.681974,10.990808 -8.996045,8.738694 -10.809028,10.388127 -11.486981,10.450734 -0.738577,0.06821 -1.166365,-0.289271 -5.184022,-4.331995 z"
     id="path4616"
     inkscape:connector-curvature="0" />
  <path
     style="fill:none;stroke-width:0.25385594"
     d="m 20.497367,37.704731 c -3.736628,-3.759941 -4.379015,-4.519181 -4.379015,-5.175579 0,-0.946732 0.686395,-1.6095 1.666877,-1.6095 0.610989,0 1.359662,0.620151 4.338805,3.593979 l 3.600402,3.593978 3.171154,-3.022802 c 1.744136,-1.662542 6.255661,-6.021476 10.025614,-9.686521 3.769952,-3.665045 7.040866,-6.663718 7.268699,-6.663718 0.622896,0 1.660441,1.162625 1.660441,1.860616 0,0.475852 -2.408999,2.954498 -10.681974,10.990808 -8.996045,8.738694 -10.809028,10.388127 -11.486981,10.450734 -0.738577,0.06821 -1.166365,-0.289271 -5.184022,-4.331995 z"
     id="path4618"
     inkscape:connector-curvature="0" />
  <path
     style="fill:none;stroke-width:0.25385594"
     d="m 20.497367,37.704731 c -3.736628,-3.759941 -4.379015,-4.519181 -4.379015,-5.175579 0,-0.946732 0.686395,-1.6095 1.666877,-1.6095 0.610989,0 1.359662,0.620151 4.338805,3.593979 l 3.600402,3.593978 3.171154,-3.022802 c 1.744136,-1.662542 6.255661,-6.021476 10.025614,-9.686521 3.769952,-3.665045 7.040866,-6.663718 7.268699,-6.663718 0.622896,0 1.660441,1.162625 1.660441,1.860616 0,0.475852 -2.408999,2.954498 -10.681974,10.990808 -8.996045,8.738694 -10.809028,10.388127 -11.486981,10.450734 -0.738577,0.06821 -1.166365,-0.289271 -5.184022,-4.331995 z"
     id="path4620"
     inkscape:connector-curvature="0" />
  <path
     style="fill:#ff6363;stroke-width:0.25385594;fill-opacity:0"
     d="M 25.00331,59.205281 C 14.822026,57.359507 6.6712908,50.939043 2.6406323,41.589849 -2.3135829,30.098444 0.44598727,16.939055 9.6309547,8.2555396 11.331448,6.6478842 15.318797,3.9788483 17.440954,3.0277128 c 0.936861,-0.4198946 2.821742,-1.1323034 4.188622,-1.5831306 2.363293,-0.77946562 2.717821,-0.82513113 7.225259,-0.93066252 5.446309,-0.12751281 7.455452,0.16294786 11.251664,1.62664562 4.545415,1.7525672 7.636403,3.8142407 11.067411,7.3819101 4.395924,4.5710196 7.059497,9.9107826 7.975696,15.9891616 1.134066,7.523803 -0.733918,15.381858 -5.137298,21.611096 -1.610942,2.278918 -4.854068,5.45705 -7.249958,7.104666 -2.410179,1.657443 -6.600099,3.675288 -8.812387,4.244004 -4.357846,1.120274 -9.277153,1.399125 -12.946653,0.733878 z m 11.963517,-2.368042 c 4.95162,-1.33662 8.885653,-3.591749 12.42294,-7.121284 2.590257,-2.58458 3.751729,-4.184109 5.312631,-7.316323 2.148263,-4.310865 2.884857,-7.543819 2.875855,-12.622331 -0.0058,-3.259683 -0.09974,-4.157696 -0.652727,-6.238165 C 56.06713,20.309643 55.141416,18.01496 53.719988,15.59315 50.695165,10.439504 46.046863,6.5036691 40.361594,4.282264 34.070508,1.8241474 27.88277,1.618765 21.414882,3.6533874 12.551119,6.4416867 6.4394894,12.719247 3.2722906,22.288551 c -0.6876317,2.077595 -0.7145605,2.35115 -0.7246998,7.361822 -0.00883,4.362702 0.068089,5.491335 0.4757634,6.981038 0.7182813,2.624708 2.0599579,5.820076 3.4035239,8.105909 1.283821,2.184189 4.7663729,5.933743 7.1529149,7.701316 2.628978,1.947131 8.068895,4.288952 11.36109,4.890814 0.662629,0.121138 3.203894,0.177545 5.647258,0.125347 3.463189,-0.07398 4.869291,-0.210117 6.378686,-0.617558 z"
     id="path4622"
     inkscape:connector-curvature="0" />
  <path
     style="fill:#ff6363;fill-opacity:0;stroke-width:0.25385594"
     d="M 25.00331,59.205281 C 14.822026,57.359507 6.6712908,50.939043 2.6406323,41.589849 -2.3135829,30.098444 0.44598727,16.939055 9.6309547,8.2555396 11.331448,6.6478842 15.318797,3.9788483 17.440954,3.0277128 c 0.936861,-0.4198946 2.821742,-1.1323034 4.188622,-1.5831306 2.363293,-0.77946562 2.717821,-0.82513113 7.225259,-0.93066252 5.446309,-0.12751281 7.455452,0.16294786 11.251664,1.62664562 4.545415,1.7525672 7.636403,3.8142407 11.067411,7.3819101 4.395924,4.5710196 7.059497,9.9107826 7.975696,15.9891616 1.134066,7.523803 -0.733918,15.381858 -5.137298,21.611096 -1.610942,2.278918 -4.854068,5.45705 -7.249958,7.104666 -2.410179,1.657443 -6.600099,3.675288 -8.812387,4.244004 -4.357846,1.120274 -9.277153,1.399125 -12.946653,0.733878 z m 11.963517,-2.368042 c 4.95162,-1.33662 8.885653,-3.591749 12.42294,-7.121284 2.590257,-2.58458 3.751729,-4.184109 5.312631,-7.316323 2.148263,-4.310865 2.884857,-7.543819 2.875855,-12.622331 -0.0058,-3.259683 -0.09974,-4.157696 -0.652727,-6.238165 C 56.06713,20.309643 55.141416,18.01496 53.719988,15.59315 50.695165,10.439504 46.046863,6.5036691 40.361594,4.282264 34.070508,1.8241474 27.88277,1.618765 21.414882,3.6533874 12.551119,6.4416867 6.4394894,12.719247 3.2722906,22.288551 c -0.6876317,2.077595 -0.7145605,2.35115 -0.7246998,7.361822 -0.00883,4.362702 0.068089,5.491335 0.4757634,6.981038 0.7182813,2.624708 2.0599579,5.820076 3.4035239,8.105909 1.283821,2.184189 4.7663729,5.933743 7.1529149,7.701316 2.628978,1.947131 8.068895,4.288952 11.36109,4.890814 0.662629,0.121138 3.203894,0.177545 5.647258,0.125347 3.463189,-0.07398 4.869291,-0.210117 6.378686,-0.617558 z"
     id="path4624"
     inkscape:connector-curvature="0" />
  <path
     style="fill:#ff6363;fill-opacity:0;stroke-width:0.25385594"
     d="m 20.497367,37.704731 c -3.736628,-3.759941 -4.379015,-4.519181 -4.379015,-5.175579 0,-0.946732 0.686395,-1.6095 1.666877,-1.6095 0.610989,0 1.359662,0.620151 4.338805,3.593979 l 3.600402,3.593978 3.171154,-3.022802 c 1.744136,-1.662542 6.255661,-6.021476 10.025614,-9.686521 3.769952,-3.665045 7.040866,-6.663718 7.268699,-6.663718 0.622896,0 1.660441,1.162625 1.660441,1.860616 0,0.475852 -2.408999,2.954498 -10.681974,10.990808 -8.996045,8.738694 -10.809028,10.388127 -11.486981,10.450734 -0.738577,0.06821 -1.166365,-0.289271 -5.184022,-4.331995 z"
     id="path4626"
     inkscape:connector-curvature="0" />
  <path
     style="fill:#ff6363;fill-opacity:0;stroke-width:0.25385594"
     d="m 20.497367,37.704731 c -3.736628,-3.759941 -4.379015,-4.519181 -4.379015,-5.175579 0,-0.946732 0.686395,-1.6095 1.666877,-1.6095 0.610989,0 1.359662,0.620151 4.338805,3.593979 l 3.600402,3.593978 3.171154,-3.022802 c 1.744136,-1.662542 6.255661,-6.021476 10.025614,-9.686521 3.769952,-3.665045 7.040866,-6.663718 7.268699,-6.663718 0.622896,0 1.660441,1.162625 1.660441,1.860616 0,0.475852 -2.408999,2.954498 -10.681974,10.990808 -8.996045,8.738694 -10.809028,10.388127 -11.486981,10.450734 -0.738577,0.06821 -1.166365,-0.289271 -5.184022,-4.331995 z"
     id="path4628"
     inkscape:connector-curvature="0" />
  <path
     style="fill:#ff6363;fill-opacity:0;stroke-width:0.25385594"
     d="m 20.497367,37.704731 c -3.736628,-3.759941 -4.379015,-4.519181 -4.379015,-5.175579 0,-0.946732 0.686395,-1.6095 1.666877,-1.6095 0.610989,0 1.359662,0.620151 4.338805,3.593979 l 3.600402,3.593978 3.171154,-3.022802 c 1.744136,-1.662542 6.255661,-6.021476 10.025614,-9.686521 3.769952,-3.665045 7.040866,-6.663718 7.268699,-6.663718 0.622896,0 1.660441,1.162625 1.660441,1.860616 0,0.475852 -2.408999,2.954498 -10.681974,10.990808 -8.996045,8.738694 -10.809028,10.388127 -11.486981,10.450734 -0.738577,0.06821 -1.166365,-0.289271 -5.184022,-4.331995 z"
     id="path4630"
     inkscape:connector-curvature="0" />
  <path
     style="fill:#ff6363;fill-opacity:0;stroke-width:0.25385594"
     d="m 20.497367,37.704731 c -3.736628,-3.759941 -4.379015,-4.519181 -4.379015,-5.175579 0,-0.946732 0.686395,-1.6095 1.666877,-1.6095 0.610989,0 1.359662,0.620151 4.338805,3.593979 l 3.600402,3.593978 3.171154,-3.022802 c 1.744136,-1.662542 6.255661,-6.021476 10.025614,-9.686521 3.769952,-3.665045 7.040866,-6.663718 7.268699,-6.663718 0.622896,0 1.660441,1.162625 1.660441,1.860616 0,0.475852 -2.408999,2.954498 -10.681974,10.990808 -8.996045,8.738694 -10.809028,10.388127 -11.486981,10.450734 -0.738577,0.06821 -1.166365,-0.289271 -5.184022,-4.331995 z"
     id="path4632"
     inkscape:connector-curvature="0" />
  <path
     style="fill:#ff6363;fill-opacity:1;stroke-width:0.25385594"
     d="m 20.497367,37.704731 c -3.736628,-3.759941 -4.379015,-4.519181 -4.379015,-5.175579 0,-0.946732 0.686395,-1.6095 1.666877,-1.6095 0.610989,0 1.359662,0.620151 4.338805,3.593979 l 3.600402,3.593978 3.171154,-3.022802 c 1.744136,-1.662542 6.255661,-6.021476 10.025614,-9.686521 3.769952,-3.665045 7.040866,-6.663718 7.268699,-6.663718 0.622896,0 1.660441,1.162625 1.660441,1.860616 0,0.475852 -2.408999,2.954498 -10.681974,10.990808 -8.996045,8.738694 -10.809028,10.388127 -11.486981,10.450734 -0.738577,0.06821 -1.166365,-0.289271 -5.184022,-4.331995 z"
     id="path4634"
     inkscape:connector-curvature="0" />
  <path
     style="fill:#ff6363;fill-opacity:1;stroke-width:0.25385594"
     d="M 25.00331,59.205281 C 14.822026,57.359507 6.6712908,50.939043 2.6406323,41.589849 -2.3135829,30.098444 0.44598727,16.939055 9.6309547,8.2555396 11.331448,6.6478842 15.318797,3.9788483 17.440954,3.0277128 c 0.936861,-0.4198946 2.821742,-1.1323034 4.188622,-1.5831306 2.363293,-0.77946562 2.717821,-0.82513113 7.225259,-0.93066252 5.446309,-0.12751281 7.455452,0.16294786 11.251664,1.62664562 4.545415,1.7525672 7.636403,3.8142407 11.067411,7.3819101 4.395924,4.5710196 7.059497,9.9107826 7.975696,15.9891616 1.134066,7.523803 -0.733918,15.381858 -5.137298,21.611096 -1.610942,2.278918 -4.854068,5.45705 -7.249958,7.104666 -2.410179,1.657443 -6.600099,3.675288 -8.812387,4.244004 -4.357846,1.120274 -9.277153,1.399125 -12.946653,0.733878 z m 11.963517,-2.368042 c 4.95162,-1.33662 8.885653,-3.591749 12.42294,-7.121284 2.590257,-2.58458 3.751729,-4.184109 5.312631,-7.316323 2.148263,-4.310865 2.884857,-7.543819 2.875855,-12.622331 -0.0058,-3.259683 -0.09974,-4.157696 -0.652727,-6.238165 C 56.06713,20.309643 55.141416,18.01496 53.719988,15.59315 50.695165,10.439504 46.046863,6.5036691 40.361594,4.282264 34.070508,1.8241474 27.88277,1.618765 21.414882,3.6533874 12.551119,6.4416867 6.4394894,12.719247 3.2722906,22.288551 c -0.6876317,2.077595 -0.7145605,2.35115 -0.7246998,7.361822 -0.00883,4.362702 0.068089,5.491335 0.4757634,6.981038 0.7182813,2.624708 2.0599579,5.820076 3.4035239,8.105909 1.283821,2.184189 4.7663729,5.933743 7.1529149,7.701316 2.628978,1.947131 8.068895,4.288952 11.36109,4.890814 0.662629,0.121138 3.203894,0.177545 5.647258,0.125347 3.463189,-0.07398 4.869291,-0.210117 6.378686,-0.617558 z"
     id="path4644"
     inkscape:connector-curvature="0" />
</svg>
