<?xml version="1.0" encoding="UTF-8" standalone="no"?>
<svg
   xmlns:dc="http://purl.org/dc/elements/1.1/"
   xmlns:cc="http://creativecommons.org/ns#"
   xmlns:rdf="http://www.w3.org/1999/02/22-rdf-syntax-ns#"
   xmlns:svg="http://www.w3.org/2000/svg"
   xmlns="http://www.w3.org/2000/svg"
   xmlns:sodipodi="http://sodipodi.sourceforge.net/DTD/sodipodi-0.dtd"
   xmlns:inkscape="http://www.inkscape.org/namespaces/inkscape"
   viewBox="0 0 56.531 56.53"
   version="1.1"
   id="svg4"
   sodipodi:docname="zoom.svg"
   inkscape:version="0.92.4 (5da689c313, 2019-01-14)">
  <metadata
     id="metadata10">
    <rdf:RDF>
      <cc:Work
         rdf:about="">
        <dc:format>image/svg+xml</dc:format>
        <dc:type
           rdf:resource="http://purl.org/dc/dcmitype/StillImage" />
      </cc:Work>
    </rdf:RDF>
  </metadata>
  <defs
     id="defs8" />
  <sodipodi:namedview
     pagecolor="#ffffff"
     bordercolor="#666666"
     borderopacity="1"
     objecttolerance="10"
     gridtolerance="10"
     guidetolerance="10"
     inkscape:pageopacity="0"
     inkscape:pageshadow="2"
     inkscape:window-width="1920"
     inkscape:window-height="1018"
     id="namedview6"
     showgrid="false"
     inkscape:zoom="4.1747745"
     inkscape:cx="28.265499"
     inkscape:cy="28.264999"
     inkscape:window-x="-8"
     inkscape:window-y="-8"
     inkscape:window-maximized="1"
     inkscape:current-layer="svg4" />
  <path
     class="zoom"
     d="M56.547 53.59l-2.954 2.96-16.312-16.32a18 18 0 0 1-3.094 2.25 24.059 24.059 0 0 1-3.515 1.69 20.8 20.8 0 0 1-3.868 1.06 24.021 24.021 0 0 1-4.007.35 21.867 21.867 0 0 1-8.93-1.83 23.622 23.622 0 0 1-7.242-4.92 22.523 22.523 0 0 1-4.852-7.25A22.224 22.224 0 0 1 .015 22.8 22.6 22.6 0 0 1 22.797.01a22.337 22.337 0 0 1 8.789 1.76 22.794 22.794 0 0 1 7.242 4.85 23.707 23.707 0 0 1 4.922 7.25 21.9 21.9 0 0 1 1.828 8.93 23.551 23.551 0 0 1-.352 4 20.544 20.544 0 0 1-1.054 3.87 24.84 24.84 0 0 1-1.688 3.52 18.988 18.988 0 0 1-2.25 3.09l16.313 16.31zM2.406 22.8a19.963 19.963 0 0 0 1.547 7.87 20.187 20.187 0 0 0 4.359 6.47 20.879 20.879 0 0 0 6.539 4.43 19.709 19.709 0 0 0 7.946 1.62 19.226 19.226 0 0 0 7.875-1.62 21.318 21.318 0 0 0 10.9-10.9 19.26 19.26 0 0 0 1.617-7.87 19.776 19.776 0 0 0-1.617-7.95 21.078 21.078 0 0 0-4.43-6.54 20.279 20.279 0 0 0-6.468-4.36 20.032 20.032 0 0 0-7.875-1.55 20.538 20.538 0 0 0-7.946 1.55 20.036 20.036 0 0 0-10.9 10.9 20.5 20.5 0 0 0-1.547 7.95z"
     id="path2" />
  <path
     style="fill:#2a7fff;stroke-width:0.23953389"
     d="m 45.511939,48.218173 c -4.411936,-4.413412 -8.112962,-8.024386 -8.224501,-8.024386 -0.111539,0 -0.644689,0.378243 -1.184778,0.840539 -1.345093,1.151351 -5.39575,3.117641 -7.717394,3.746222 -2.847644,0.770992 -8.298624,0.774882 -11.122317,0.008 C 8.8767628,42.510717 2.3199629,35.671998 0.61684072,27.426657 0.1402311,25.119241 0.12513407,20.404721 0.58739793,18.232212 2.3725739,9.8423926 8.1859837,3.5250114 16.457296,0.98653421 c 1.92535,-0.59089253 2.458287,-0.64789382 6.179157,-0.66090302 3.557991,-0.0124397 4.310824,0.0549144 5.963203,0.53351188 6.704609,1.94193153 11.823264,6.30795533 14.769866,12.59815093 1.512738,3.229288 2.001871,5.494968 1.997068,9.250519 -0.0032,2.523087 -0.121005,3.707455 -0.535952,5.389513 -0.625504,2.53559 -2.248253,6.007862 -3.616988,7.739443 -0.5343,0.67594 -0.971456,1.312413 -0.971456,1.41438 0,0.101968 3.635772,3.822348 8.079497,8.267513 l 8.079495,8.082118 -1.30448,1.32089 c -0.717466,0.726487 -1.362663,1.320888 -1.433773,1.320888 -0.07111,0 -3.739057,-3.610973 -8.150994,-8.024385 z M 25.87016,43.058522 C 33.232517,41.897223 39.921551,36.229992 42.244522,29.185473 46.064214,17.602088 38.800542,5.1135873 26.835848,2.6931888 23.8919,2.0976426 19.535146,2.3099929 16.767872,3.1839068 9.6182464,5.4417815 4.5106983,10.904805 2.8564695,18.063516 2.412509,19.984766 2.3515711,20.811838 2.4477703,23.61054 c 0.09931,2.8892 0.2061807,3.565797 0.8789639,5.564688 C 6.5305359,38.693972 16.115924,44.5971 25.87016,43.058522 Z"
     id="path12"
     inkscape:connector-curvature="0" />
</svg>
