<svg id="svg" xmlns="http://www.w3.org/2000/svg" xmlns:xlink="http://www.w3.org/1999/xlink" width="400" height="400" viewBox="0, 0, 400,400"><g id="svgg"><path id="path0" d="M66.087 201.739 L 66.087 333.913 203.478 333.913 L 340.870 333.913 340.870 201.739 L 340.870 69.565 203.478 69.565 L 66.087 69.565 66.087 201.739 M323.478 95.652 L 323.478 104.348 203.478 104.348 L 83.478 104.348 83.478 95.652 L 83.478 86.957 203.478 86.957 L 323.478 86.957 323.478 95.652 M90.435 95.652 C 90.435 98.551,93.527 100.870,97.391 100.870 C 101.256 100.870,104.348 98.551,104.348 95.652 C 104.348 92.754,101.256 90.435,97.391 90.435 C 93.527 90.435,90.435 92.754,90.435 95.652 M107.826 95.652 C 107.826 98.522,110.174 100.870,113.043 100.870 C 115.913 100.870,118.261 98.522,118.261 95.652 C 118.261 92.783,115.913 90.435,113.043 90.435 C 110.174 90.435,107.826 92.783,107.826 95.652 M121.739 95.652 C 121.739 98.551,124.831 100.870,128.696 100.870 C 132.560 100.870,135.652 98.551,135.652 95.652 C 135.652 92.754,132.560 90.435,128.696 90.435 C 124.831 90.435,121.739 92.754,121.739 95.652 M323.478 220.870 L 323.478 316.522 203.478 316.522 L 83.478 316.522 83.478 220.870 L 83.478 125.217 203.478 125.217 L 323.478 125.217 323.478 220.870 M203.954 180.099 C 193.674 196.733,185.170 257.391,193.118 257.391 C 201.112 257.391,222.592 189.284,217.298 180.719 C 214.823 176.715,206.291 176.318,203.954 180.099 M150.248 199.296 C 136.200 213.789,136.291 214.946,152.730 230.998 C 171.043 248.881,184.313 239.344,166.903 220.812 L 159.892 213.350 166.903 207.005 C 175.713 199.032,176.144 187.826,167.639 187.826 C 164.188 187.826,156.362 192.988,150.248 199.296 M233.043 194.244 C 233.043 197.773,236.198 203.516,240.054 207.005 L 247.064 213.350 240.054 220.812 C 222.644 239.344,235.913 248.881,254.227 230.998 C 270.739 214.874,270.864 213.004,256.356 198.943 C 243.531 186.513,233.043 184.399,233.043 194.244 " stroke="none" fill="#000000" fill-rule="evenodd"></path></g></svg>