<svg id="svg" xmlns="http://www.w3.org/2000/svg" xmlns:xlink="http://www.w3.org/1999/xlink" width="400" height="400" viewBox="0, 0, 400,400"><g id="svgg"><path id="path0" d="M63.338 84.348 L 64.348 113.043 90.435 113.043 C 116.308 113.043,116.531 112.965,117.622 103.478 L 118.723 93.913 155.014 93.913 C 199.699 93.913,199.421 87.422,158.261 169.715 C 122.307 241.600,121.904 242.880,132.286 252.276 C 149.706 268.040,160.854 295.652,149.800 295.652 C 143.213 295.652,142.609 297.706,142.609 320.082 L 142.609 344.512 202.609 343.560 L 262.609 342.609 263.707 327.236 C 265.266 305.413,262.147 295.652,253.612 295.652 C 242.293 295.652,251.754 274.115,273.519 250.332 L 281.572 241.533 246.873 172.527 C 203.870 87.006,203.730 93.913,248.465 93.913 L 284.755 93.913 285.856 103.478 C 286.947 112.965,287.171 113.043,313.043 113.043 L 339.130 113.043 340.141 84.348 L 341.151 55.652 313.184 55.652 L 285.217 55.652 285.217 66.087 L 285.217 76.522 201.739 76.522 L 118.261 76.522 118.261 66.087 L 118.261 55.652 90.294 55.652 L 62.327 55.652 63.338 84.348 M100.870 83.478 C 100.870 97.060,100.580 97.391,88.696 97.391 C 76.812 97.391,76.522 97.060,76.522 83.478 C 76.522 69.896,76.812 69.565,88.696 69.565 C 100.580 69.565,100.870 69.896,100.870 83.478 M326.957 85.217 C 326.957 96.812,326.377 97.391,314.783 97.391 C 303.188 97.391,302.609 96.812,302.609 85.217 C 302.609 73.623,303.188 73.043,314.783 73.043 C 326.377 73.043,326.957 73.623,326.957 85.217 M186.233 203.647 C 174.252 214.751,174.391 230.178,186.556 239.748 C 210.536 258.610,240.626 226.713,219.130 205.217 C 213.332 199.419,212.204 193.775,212.356 171.304 L 212.537 144.348 236.184 191.085 L 259.832 237.821 248.497 252.671 C 242.263 260.838,235.332 273.067,233.094 279.847 L 229.026 292.174 202.109 292.174 L 175.193 292.174 167.464 273.525 C 163.212 263.268,155.998 251.366,151.432 247.077 L 143.131 239.278 168.087 190.074 L 193.043 140.870 194.059 168.161 C 195.005 193.570,194.465 196.019,186.233 203.647 M207.144 219.434 C 210.728 225.233,202.667 231.884,197.868 227.086 C 193.855 223.072,196.367 215.652,201.739 215.652 C 203.426 215.652,205.858 217.354,207.144 219.434 M246.957 318.261 L 246.957 326.957 203.478 326.957 L 160.000 326.957 160.000 318.261 L 160.000 309.565 203.478 309.565 L 246.957 309.565 246.957 318.261 " stroke="none" fill="#000000" fill-rule="evenodd"></path></g></svg>