<svg id="svg" xmlns="http://www.w3.org/2000/svg" xmlns:xlink="http://www.w3.org/1999/xlink" width="400" height="400" viewBox="0, 0, 400,400"><g id="svgg"><path id="path0" d="M192.724 40.000 C 188.862 45.894,183.846 48.696,177.155 48.696 C 163.723 48.696,150.130 55.351,147.659 63.137 C 145.838 68.873,141.523 69.565,107.592 69.565 L 69.565 69.565 69.565 208.696 L 69.565 347.826 206.957 347.826 L 344.348 347.826 344.348 208.696 L 344.348 69.565 311.572 69.565 C 279.792 69.565,278.479 69.248,268.361 59.130 C 260.786 51.555,254.627 48.696,245.885 48.696 C 236.879 48.696,232.407 46.504,228.146 40.000 C 223.889 33.503,219.411 31.304,210.435 31.304 C 201.459 31.304,196.981 33.503,192.724 40.000 M215.581 57.204 C 218.367 64.531,221.374 65.859,237.234 66.769 C 254.436 67.756,255.725 68.458,256.753 77.391 L 257.853 86.957 210.435 86.957 L 163.016 86.957 164.117 77.391 C 165.145 68.458,166.433 67.756,183.636 66.769 C 199.495 65.859,202.503 64.531,205.289 57.204 C 209.359 46.497,211.510 46.497,215.581 57.204 M201.739 72.754 C 201.739 79.844,207.612 83.492,214.783 80.855 C 223.186 77.764,219.748 66.087,210.435 66.087 C 204.184 66.087,201.739 67.961,201.739 72.754 M146.715 94.783 C 147.820 102.568,148.155 102.609,210.435 102.609 C 272.714 102.609,273.049 102.568,274.155 94.783 C 275.194 87.469,276.957 86.957,301.111 86.957 L 326.957 86.957 326.957 208.696 L 326.957 330.435 206.957 330.435 L 86.957 330.435 86.957 208.696 L 86.957 86.957 116.280 86.957 C 144.041 86.957,145.662 87.373,146.715 94.783 M156.008 137.747 C 148.316 145.439,145.840 146.200,139.514 142.814 C 127.462 136.364,125.625 148.075,136.917 159.368 L 146.115 168.565 160.510 154.170 C 169.962 144.719,174.175 137.873,172.779 134.236 C 169.835 126.563,166.492 127.263,156.008 137.747 M189.041 144.459 C 185.185 154.509,193.105 156.803,228.133 155.785 C 259.956 154.860,262.609 154.247,262.609 147.826 C 262.609 138.222,192.663 135.021,189.041 144.459 M154.663 184.480 C 149.894 189.749,145.740 191.017,138.472 189.421 C 130.399 187.647,128.696 188.439,128.696 193.967 C 128.696 200.815,138.734 212.174,144.785 212.174 C 149.582 212.174,173.913 186.628,173.913 181.592 C 173.913 174.894,161.678 176.729,154.663 184.480 M187.826 194.783 C 187.826 201.318,190.145 201.739,226.087 201.739 C 262.029 201.739,264.348 201.318,264.348 194.783 C 264.348 188.248,262.029 187.826,226.087 187.826 C 190.145 187.826,187.826 188.248,187.826 194.783 M153.000 231.350 C 147.454 237.254,143.644 238.948,141.263 236.568 C 135.605 230.910,128.696 232.500,128.696 239.461 C 128.696 246.929,139.112 257.391,146.548 257.391 C 153.518 257.391,173.913 235.881,173.913 228.530 C 173.913 219.742,162.453 221.288,153.000 231.350 M187.826 240.000 C 187.826 246.535,190.145 246.957,226.087 246.957 C 262.029 246.957,264.348 246.535,264.348 240.000 C 264.348 233.465,262.029 233.043,226.087 233.043 C 190.145 233.043,187.826 233.465,187.826 240.000 M156.008 276.877 C 148.316 284.569,145.840 285.330,139.514 281.944 C 127.462 275.494,125.625 287.206,136.917 298.498 L 146.115 307.696 160.510 293.301 C 169.962 283.849,174.175 277.004,172.779 273.366 C 169.835 265.693,166.492 266.393,156.008 276.877 M189.041 283.590 C 185.185 293.639,193.105 295.934,228.133 294.915 C 259.956 293.990,262.609 293.378,262.609 286.957 C 262.609 277.352,192.663 274.151,189.041 283.590 " stroke="none" fill="#000000" fill-rule="evenodd"></path></g></svg>