<?xml version="1.0" encoding="UTF-8" standalone="no"?>
<!DOCTYPE svg PUBLIC "-//W3C//DTD SVG 1.1//EN" "http://www.w3.org/Graphics/SVG/1.1/DTD/svg11.dtd">
<svg version="1.1" xmlns="http://www.w3.org/2000/svg" xmlns:xlink="http://www.w3.org/1999/xlink" preserveAspectRatio="xMidYMid meet" viewBox="0 0 80 80" width="80" height="80"><defs><path d="M74 38.25C74 56.05 59.44 70.5 41.5 70.5C23.56 70.5 9 56.05 9 38.25C9 20.45 23.56 6 41.5 6C59.44 6 74 20.45 74 38.25Z" id="a13njiDnPI"></path><path d="M69 72L41.5 20.25L14 72L69 72Z" id="dH5zHVo7"></path><path d="M15.25 71.5C15.25 72.88 14.13 74 12.75 74C11.37 74 10.25 72.88 10.25 71.5C10.25 70.12 11.37 69 12.75 69C14.13 69 15.25 70.12 15.25 71.5Z" id="a2l6LPbciR"></path><path d="M70.5 71.5C70.5 72.88 69.38 74 68 74C66.62 74 65.5 72.88 65.5 71.5C65.5 70.12 66.62 69 68 69C69.38 69 70.5 70.12 70.5 71.5Z" id="dQFnEEutz"></path><path d="M43.5 71.5C43.5 72.88 42.38 74 41 74C39.62 74 38.5 72.88 38.5 71.5C38.5 70.12 39.62 69 41 69C42.38 69 43.5 70.12 43.5 71.5Z" id="b1FQ8X7cpD"></path></defs><g><g><g><use xlink:href="#a13njiDnPI" opacity="1" fill-opacity="0"></use><g><use xlink:href="#a13njiDnPI" opacity="1" fill-opacity="0" stroke="#000000" stroke-width="2" stroke-opacity="1"></use></g></g><g><g><use xlink:href="#dH5zHVo7" opacity="1" fill-opacity="0" stroke="#000000" stroke-width="2" stroke-opacity="1"></use></g></g><g><use xlink:href="#a2l6LPbciR" opacity="1" fill-opacity="1"></use><g><use xlink:href="#a2l6LPbciR" opacity="1" fill-opacity="0" stroke="#000000" stroke-width="2" stroke-opacity="1"></use></g></g><g><use xlink:href="#dQFnEEutz" opacity="1" fill="#000000" fill-opacity="1"></use><g><use xlink:href="#dQFnEEutz" opacity="1" fill-opacity="0" stroke="#000000" stroke-width="2" stroke-opacity="1"></use></g></g><g><use xlink:href="#b1FQ8X7cpD" opacity="1" fill-opacity="1"></use><g><use xlink:href="#b1FQ8X7cpD" opacity="1" fill-opacity="0" stroke-width="2" stroke-opacity="1"></use></g></g></g></g></svg>