<svg id="svg" xmlns="http://www.w3.org/2000/svg" xmlns:xlink="http://www.w3.org/1999/xlink" viewBox="0, 0, 400,400"><g id="svgg"><path id="path0" d="M177.344 1.541 C 119.022 12.197,75.246 57.669,67.531 115.608 C 65.930 127.632,65.930 272.368,67.531 284.392 C 76.507 351.807,131.649 399.614,200.391 399.577 C 268.410 399.542,323.538 351.464,332.469 284.392 C 334.070 272.368,334.070 127.632,332.469 115.608 C 324.968 59.276,283.323 14.557,226.953 2.304 C 215.505 -0.185,189.018 -0.592,177.344 1.541 M212.333 16.050 C 261.135 19.584,304.789 59.362,315.847 110.373 C 318.565 122.911,318.565 277.089,315.847 289.627 C 295.675 382.681,183.719 416.425,116.742 349.638 C 99.558 332.503,89.388 313.774,84.153 289.627 C 81.435 277.089,81.435 122.911,84.153 110.373 C 96.284 54.412,149.675 11.476,202.344 15.324 C 204.277 15.465,208.772 15.792,212.333 16.050 M197.878 44.318 C 196.926 44.491,195.246 45.704,194.145 47.012 L 192.143 49.391 192.361 86.092 L 192.578 122.793 194.770 124.678 C 196.274 125.971,197.915 126.563,200.000 126.563 C 202.085 126.563,203.726 125.971,205.230 124.678 L 207.422 122.793 207.639 86.043 L 207.857 49.293 205.686 46.987 C 203.462 44.625,200.936 43.761,197.878 44.318 " stroke="none" fill="#fff" fill-rule="evenodd"></path></g></svg>