<?xml version="1.0" encoding="iso-8859-1"?>
<!-- Generator: Adobe Illustrator 19.0.0, SVG Export Plug-In . SVG Version: 6.00 Build 0)  -->
<svg version="1.1" id="Capa_1" xmlns="http://www.w3.org/2000/svg" xmlns:xlink="http://www.w3.org/1999/xlink" x="0px" y="0px"
	viewBox="0 0 512.001 512.001" style="enable-background:new 0 0 512.001 512.001;" xml:space="preserve">
	<g>
		<g>
			<path d="M466.876,13.182C458.376,4.681,447.073,0,435.051,0c-12.022,0-23.322,4.682-31.823,13.182l-50.665,50.665
				c-26.303,26.303-49.243,45.791-72.197,61.33c-20.966,14.194-42.99,32.64-63.692,53.342c-7.402,7.402-14.489,14.953-21.204,22.545
				c-0.154,0.174-0.315,0.343-0.46,0.522c-14.626,16.583-27.406,33.346-37.455,49.188c-0.069,0.103-0.134,0.207-0.2,0.311
				c-2.218,3.507-4.31,6.97-6.25,10.374c-9.34,16.384-19.466,33.723-31.496,49.761L34.943,424.114
				c-4.48,5.973-3.886,14.33,1.394,19.61c2.907,2.907,6.749,4.395,10.613,4.395c3.149,0,6.314-0.989,8.997-3l112.893-84.67
				c3.236-2.427,6.535-4.758,9.858-7.04c-1.673,3.684-3.414,7.339-5.232,10.929l-63.779,125.881
				c-3.375,6.66-1.338,14.787,4.778,19.07c2.604,1.823,5.611,2.713,8.599,2.713c4.029,0,8.024-1.617,10.955-4.746l96.475-102.986
				c13.703-14.628,29.021-27.613,43.536-39.658c23.083-19.156,48.048-47.203,70.294-78.974
				c16.794-23.985,31.136-48.877,41.472-71.988c11.317-25.301,26.525-51.278,47.861-81.749c0.146-0.209,0.288-0.423,0.424-0.639
				l38.102-60.812c5.114-7.435,7.875-16.224,7.875-25.443C480.059,32.985,475.377,21.682,466.876,13.182z M295.453,151.215
				l33.391,33.39c-5.46,7.946-11.573,16.06-18.236,24.198l-39.353-39.353C279.393,162.788,287.507,156.675,295.453,151.215z
				M237.891,199.735c3.559-3.559,7.155-7.041,10.776-10.441l42.097,42.098c-3.399,3.621-6.881,7.217-10.44,10.776
				c-3.565,3.565-7.163,7.042-10.777,10.44l-42.096-42.096C230.849,206.898,234.326,203.299,237.891,199.735z M207.577,233.071
				l39.411,39.411c-8.149,6.7-16.243,12.839-24.136,18.297l-33.572-33.572C194.739,249.314,200.877,241.22,207.577,233.071z
				M150.836,336.444l-28.88,21.66l21.66-28.881c11.224-14.964,20.993-31.098,29.471-45.779l23.528,23.527
				C181.932,315.452,165.799,325.221,150.836,336.444z M358.405,201.396c-9.572,21.4-22.94,44.579-38.661,67.029
				c-20.755,29.64-43.796,55.599-64.878,73.094c-14.58,12.1-31.383,26.34-46.273,42.235l-24.68,26.346l16.316-32.203
				c8.571-16.917,15.422-34.651,21.227-50.618c2.479-1.458,4.981-2.973,7.513-4.575c0.105-0.067,0.21-0.132,0.314-0.202
				c15.841-10.047,32.605-22.827,49.188-37.455c0.178-0.143,0.346-0.304,0.519-0.457c7.592-6.715,15.144-13.803,22.547-21.206
				c20.703-20.702,39.149-42.727,53.342-63.692c4.047-5.977,8.369-11.955,13.002-17.991
				C364.473,188.33,361.32,194.877,358.405,201.396z M445.66,55.616l-50.664,50.664c-19.123,19.123-34.883,36.649-48.287,53.76
				l-26.689-26.689c17.11-13.405,34.636-29.165,53.76-48.288l50.664-50.664c2.833-2.833,6.601-4.394,10.608-4.394
				c4.008,0,7.774,1.56,10.608,4.394s4.395,6.601,4.395,10.609C450.054,49.015,448.493,52.782,445.66,55.616z"/>
			</g>
		</g>
		<g>
		</g>
		<g>
		</g>
		<g>
		</g>
		<g>
		</g>
		<g>
		</g>
		<g>
		</g>
		<g>
		</g>
		<g>
		</g>
		<g>
		</g>
		<g>
		</g>
		<g>
		</g>
		<g>
		</g>
		<g>
		</g>
		<g>
		</g>
		<g>
		</g>
	</svg>
